. 
  
http://www.torrentday.com/        :     The Hottest Private Tracker On The Net!!!


               www . TorrentDay . Com 
(((((((((((((= Enjoy No RAR releases =))))))))))))))))))))


...................................NFO:....................................

.[img]http://leetleech.org/images/14716837912423982705.jpg[/img]

[b]The Phantom (2009) DVDRip XviD-SKITTLES[/b]

[img]http://leetleech.org/images/39185456263711143641.png[/img]

Video
ID                               : 0
Format                           : MPEG-4 Visual
Format profile                   : Advanced Simple@L5
Format settings, BVOP            : Yes
Format settings, QPel            : No
Format settings, GMC             : No warppoints
Format settings, Matrix          : Default (H.263)
Muxing mode                      : Packed bitstream
Codec ID                         : XVID
Codec ID/Hint                    : XviD
Duration                         : 1h 24mn
Bit rate                         : 1 021 Kbps
Width                            : 624 pixels
Height                           : 336 pixels
Display aspect ratio             : 1.857
Frame rate                       : 25.000 fps
Color space                      : YUV
Chroma subsampling               : 4:2:0
Bit depth                        : 8 bits
Scan type                        : Progressive
Bits/(Pixel*Frame)               : 0.195
Stream size                      : 620 MiB (88%)
Writing library                  : XviD 1.2.1 (UTC 2008-12-04)

Audio
ID                               : 1
Format                           : MPEG Audio
Format version                   : Version 1
Format profile                   : Layer 3
Mode                             : Joint stereo
Mode extension                   : MS Stereo
Codec ID                         : 55
Codec ID/Hint                    : MP3
Duration                         : 1h 24mn
Bit rate mode                    : Constant
Bit rate                         : 128 Kbps
Channel(s)                       : 2 channels
Sampling rate                    : 48.0 KHz
Stream size                      : 77.7 MiB (11%)
Alignment                        : Split accross interleaves
Interleave, duration             : 40 ms (1.00 video frame)
Interleave, preload duration     : 500 ms
Writing library                  : LAME3.90.3 
http://www.imdb.com/title/tt1438437/

[img]http://leetleech.org/images/46941880339015444838.png[/img]

Ryan Carnes	... 	Chris Moore / Kit Walker / The Phantom
Sandrine Holt	... 	Guran
Jean Marchand	... 	Abel Vandermaark
Cameron Goodman	... 	Renny Davidson
Isabella Rossellini... 	Dr. Bella Lithia
Ron Lea	... 	Detective Sgt. Sean Davidson
Cas Anvar	... 	Rhatib Singh
Ivan Smith	... 	Dr. Deepak Baboor
Victor Andres Turgeon-Trelles	... 	Jordi Acovado
Sedina Balde	... 	Jacquot / Jeannot Roux
Luis Oliva	... 	Dr. Jason Kim
Anthony Lemke	... 	Clark Ellis
Jason Caselli	... 	Jalil Ben-David
Trevor Hayes	... 	Peter Lindford
Danette Mackay	... 	Nina Alexandra Holliston

[img]http://leetleech.org/images/70187465700988366433.png[/img]

Genre:
Action | Adventure | Crime | Fantasy 

Plot: 
Young urban daredevil Kit Walker finds himself recruited by a secret
organization, unveiling a heritage he never could have dreamed 
possible.Revered as the twenty-first 'Ghost Who Walks', he must 
now uphold and honour his ancestors creed to fight crime and 
injustice throughout the world. But it's a new world out there, and 
going up against high-tech savvy criminals will take training and 
discipline unlike anything bestowed on the Phantom.

[img]http://leetleech.org/images/64476088802225496360.png[/img]

[img]http://leetleech.org/images/82573817461822612990.png[/img]
[img]http://leetleech.org/images/20376288355532947429.png[/img]
[img]http://leetleech.org/images/35733481860080855879.png[/img]
[img]http://leetleech.org/images/96045979024809592352.png[/img]
[img]http://leetleech.org/images/41157340395763464736.png[/img]
[img]http://leetleech.org/images/90484496835032633736.png[/img]